<?xml version="1.0" encoding="UTF-8" standalone="no"?>
<!-- Created with Inkscape (http://www.inkscape.org/) -->

<svg
   width="512"
   height="512"
   viewBox="0 0 512 512"
   version="1.1"
   id="svg1"
   xml:space="preserve"
   inkscape:version="1.4.3 (0d15f75042, 2025-12-25)"
   sodipodi:docname="yl-soft.svg"
   xmlns:inkscape="http://www.inkscape.org/namespaces/inkscape"
   xmlns:sodipodi="http://sodipodi.sourceforge.net/DTD/sodipodi-0.dtd"
   xmlns:xlink="http://www.w3.org/1999/xlink"
   xmlns="http://www.w3.org/2000/svg"
   xmlns:svg="http://www.w3.org/2000/svg"><sodipodi:namedview
     id="namedview1"
     pagecolor="#ffffff"
     bordercolor="#000000"
     borderopacity="0.25"
     inkscape:showpageshadow="2"
     inkscape:pageopacity="0.0"
     inkscape:pagecheckerboard="0"
     inkscape:deskcolor="#d1d1d1"
     inkscape:document-units="px"
     inkscape:lockguides="false"
     showguides="true"
     inkscape:zoom="0.69053397"
     inkscape:cx="143.36731"
     inkscape:cy="123.09315"
     inkscape:window-width="1366"
     inkscape:window-height="706"
     inkscape:window-x="0"
     inkscape:window-y="0"
     inkscape:window-maximized="1"
     inkscape:current-layer="g14"><sodipodi:guide
       position="-10.900758,-44.017861"
       orientation="0,-1"
       id="guide63"
       inkscape:locked="false" /></sodipodi:namedview><defs
     id="defs1"><linearGradient
       id="linearGradient22"
       inkscape:collect="always"><stop
         style="stop-color:#80ffe3;stop-opacity:1;"
         offset="0"
         id="stop22" /><stop
         style="stop-color:#4f7eff;stop-opacity:1;"
         offset="1"
         id="stop17" /></linearGradient><linearGradient
       id="linearGradient14"
       inkscape:collect="always"><stop
         style="stop-color:#a7d700;stop-opacity:1;"
         offset="0"
         id="stop14" /><stop
         style="stop-color:#54ffd9;stop-opacity:1;"
         offset="1"
         id="stop15" /></linearGradient><linearGradient
       id="linearGradient60"
       inkscape:collect="always"><stop
         style="stop-color:#e188dd;stop-opacity:1;"
         offset="0"
         id="stop59" /><stop
         style="stop-color:#4f45d0;stop-opacity:1;"
         offset="1"
         id="stop60" /></linearGradient><linearGradient
       id="linearGradient58"
       inkscape:collect="always"><stop
         style="stop-color:#e1d688;stop-opacity:1;"
         offset="0"
         id="stop57" /><stop
         style="stop-color:#8d8223;stop-opacity:1;"
         offset="1"
         id="stop58" /></linearGradient><linearGradient
       id="linearGradient54"
       inkscape:collect="always"><stop
         style="stop-color:#dfb6ff;stop-opacity:1;"
         offset="0"
         id="stop54" /><stop
         style="stop-color:#c479ff;stop-opacity:1;"
         offset="1"
         id="stop55" /></linearGradient><linearGradient
       id="linearGradient52"
       inkscape:collect="always"><stop
         style="stop-color:#ce8fff;stop-opacity:1;"
         offset="0"
         id="stop52" /><stop
         style="stop-color:#9308ff;stop-opacity:1;"
         offset="1"
         id="stop53" /></linearGradient><linearGradient
       id="linearGradient50"
       inkscape:collect="always"><stop
         style="stop-color:#eb8d5a;stop-opacity:1;"
         offset="0"
         id="stop50" /><stop
         style="stop-color:#ce5919;stop-opacity:1;"
         offset="1"
         id="stop51" /></linearGradient><linearGradient
       id="linearGradient48"
       inkscape:collect="always"><stop
         style="stop-color:#bf9a86;stop-opacity:1;"
         offset="0"
         id="stop48" /><stop
         style="stop-color:#d39472;stop-opacity:1;"
         offset="1"
         id="stop49" /></linearGradient><linearGradient
       id="linearGradient46"
       inkscape:collect="always"><stop
         style="stop-color:#adbf86;stop-opacity:1;"
         offset="0"
         id="stop46" /><stop
         style="stop-color:#c8d4ae;stop-opacity:1;"
         offset="1"
         id="stop47" /></linearGradient><linearGradient
       id="linearGradient44"
       inkscape:collect="always"><stop
         style="stop-color:#839a52;stop-opacity:1;"
         offset="0"
         id="stop44" /><stop
         style="stop-color:#60713c;stop-opacity:1;"
         offset="1"
         id="stop45" /></linearGradient><inkscape:perspective
       sodipodi:type="inkscape:persp3d"
       inkscape:vp_x="72.753064 : 349.21872 : 1"
       inkscape:vp_y="479.68849 : 1225.8542 : 0"
       inkscape:vp_z="680.83731 : 93.59565 : 1"
       inkscape:persp3d-origin="335.86177 : 116.80097 : 1"
       id="perspective44" /><inkscape:perspective
       sodipodi:type="inkscape:persp3d"
       inkscape:vp_x="-48.992894 : 244.27683 : 1"
       inkscape:vp_y="-58.440763 : 1322.4166 : 0"
       inkscape:vp_z="606.1336 : 273.22844 : 1"
       inkscape:persp3d-origin="283.5573 : 145.90644 : 1"
       id="perspective36" /><inkscape:perspective
       sodipodi:type="inkscape:persp3d"
       inkscape:vp_x="66.941246 : -15.435365 : 1"
       inkscape:vp_y="-1202.7501 : 458.81282 : 0"
       inkscape:vp_z="292.47716 : 620.24385 : 1"
       inkscape:persp3d-origin="282.34387 : 263.25221 : 1"
       id="perspective21" /><linearGradient
       id="linearGradient20"
       inkscape:collect="always"><stop
         style="stop-color:#88e197;stop-opacity:1;"
         offset="0"
         id="stop20" /><stop
         style="stop-color:#238d35;stop-opacity:1;"
         offset="1"
         id="stop21" /></linearGradient><linearGradient
       id="linearGradient18"
       inkscape:collect="always"><stop
         style="stop-color:#88cfe1;stop-opacity:1;"
         offset="0"
         id="stop18" /><stop
         style="stop-color:#45b3d0;stop-opacity:1;"
         offset="1"
         id="stop19" /></linearGradient><linearGradient
       id="linearGradient12"
       inkscape:collect="always"><stop
         style="stop-color:#6d6c41;stop-opacity:1;"
         offset="0"
         id="stop12" /><stop
         style="stop-color:#81985b;stop-opacity:1;"
         offset="1"
         id="stop13" /></linearGradient><inkscape:path-effect
       effect="powerclip"
       message=""
       id="path-effect228"
       is_visible="true"
       lpeversion="1"
       inverse="true"
       flatten="false"
       hide_clip="false" /><defs
       id="defs8"><clipPath
         id="clip-1"><rect
           x="0"
           y="0"
           transform="scale(0.14649,0.14648)"
           width="1200"
           height="2048"
           fill="none"
           id="rect1" /></clipPath><linearGradient
         x1="77.00324"
         y1="59.14907"
         x2="73.17963"
         y2="50.10352"
         gradientUnits="userSpaceOnUse"
         id="color-1"><stop
           offset="0"
           stop-color="#1a0e09"
           id="stop1" /><stop
           offset="1"
           stop-color="#3f1e16"
           id="stop2" /></linearGradient><linearGradient
         x1="79.73347"
         y1="55.75283"
         x2="80.50912"
         y2="55.71533"
         gradientUnits="userSpaceOnUse"
         id="color-2"><stop
           offset="0"
           stop-color="#feece0"
           id="stop3" /><stop
           offset="1"
           stop-color="#fffefe"
           id="stop4" /></linearGradient><linearGradient
         x1="68.32094"
         y1="68.62998"
         x2="64.82912"
         y2="64.8353"
         gradientUnits="userSpaceOnUse"
         id="color-3"><stop
           offset="0"
           stop-color="#a09b9a"
           id="stop5" /><stop
           offset="1"
           stop-color="#c3c2c2"
           id="stop6" /></linearGradient><linearGradient
         x1="93.88312"
         y1="46.98296"
         x2="94.14592"
         y2="47.87871"
         gradientUnits="userSpaceOnUse"
         id="color-4"><stop
           offset="0"
           stop-color="#2a1c12"
           id="stop7" /><stop
           offset="1"
           stop-color="#573b27"
           id="stop8" /></linearGradient></defs><linearGradient
       x1="93.883118"
       y1="46.98296"
       x2="94.14592"
       y2="47.878712"
       gradientUnits="userSpaceOnUse"
       id="linearGradient220"><stop
         offset="0"
         stop-color="#2a1c12"
         id="stop7-1"
         style="stop-color:#452a0f;stop-opacity:1;" /><stop
         offset="1"
         stop-color="#573b27"
         id="stop8-7" /></linearGradient><linearGradient
       x1="68.320938"
       y1="68.629982"
       x2="64.829117"
       y2="64.835297"
       gradientUnits="userSpaceOnUse"
       id="linearGradient221"
       gradientTransform="matrix(3.2624721,0.42371377,-0.42371377,3.2624721,-536.35717,-51.299968)"><stop
         offset="0"
         stop-color="#a09b9a"
         id="stop5-5" /><stop
         offset="1"
         stop-color="#c3c2c2"
         id="stop6-9"
         style="stop-color:#3a4328;stop-opacity:1;" /></linearGradient><linearGradient
       x1="79.733467"
       y1="55.752831"
       x2="80.509117"
       y2="55.715328"
       gradientUnits="userSpaceOnUse"
       id="linearGradient222"
       gradientTransform="matrix(3.2737348,-0.32545083,0.32545083,3.2737348,-573.27646,15.845447)"><stop
         offset="0"
         stop-color="#feece0"
         id="stop3-6" /><stop
         offset="1"
         stop-color="#fffefe"
         id="stop4-2" /></linearGradient><clipPath
       clipPathUnits="userSpaceOnUse"
       id="clipPath227"><g
         id="g228"
         style="display:block"><path
           d="m 524.59248,166.99878 c 1.03039,0.48779 1.28543,3.01904 1.28015,4.02832 -0.30982,0.42334 -0.71149,0.86865 -1.05852,1.27295 -0.25005,0.30615 -0.31187,0.36328 -0.6296,0.59912 -0.0983,-0.18604 0.1982,-1.07666 0.24156,-1.45312 0.16597,-1.43701 0.14195,-2.99561 0.16641,-4.44727 z"
           fill="#ffffff"
           id="path227"
           style="mix-blend-mode:normal" /><path
           d="m 449.59479,167.16577 c 0.32623,0.32373 0.66593,4.85889 0.52457,5.43457 l -0.25591,-0.10986 c -1.77967,-1.88232 -1.4845,-3.20947 -0.26866,-5.32471 z"
           fill="#ffffff"
           id="path228"
           style="mix-blend-mode:normal" /></g></clipPath><clipPath
       id="clipPath3"><rect
         x="0"
         y="0"
         transform="scale(0.14649,0.14648)"
         width="1200"
         height="2048"
         fill="none"
         id="rect3" /></clipPath><linearGradient
       x1="77.00324"
       y1="59.14907"
       x2="73.17963"
       y2="50.10352"
       gradientUnits="userSpaceOnUse"
       id="linearGradient10"><stop
         offset="0"
         stop-color="#1a0e09"
         id="stop9" /><stop
         offset="1"
         stop-color="#3f1e16"
         id="stop10" /></linearGradient><clipPath
       clipPathUnits="userSpaceOnUse"
       id="clipPath227-5"><g
         id="g228-3"
         style="display:none"><path
           d="m 524.59248,166.99878 c 1.03039,0.48779 1.28543,3.01904 1.28015,4.02832 -0.30982,0.42334 -0.71149,0.86865 -1.05852,1.27295 -0.25005,0.30615 -0.31187,0.36328 -0.6296,0.59912 -0.0983,-0.18604 0.1982,-1.07666 0.24156,-1.45312 0.16597,-1.43701 0.14195,-2.99561 0.16641,-4.44727 z"
           fill="#ffffff"
           id="path227-5"
           style="mix-blend-mode:normal" /><path
           d="m 449.59479,167.16577 c 0.32623,0.32373 0.66593,4.85889 0.52457,5.43457 l -0.25591,-0.10986 c -1.77967,-1.88232 -1.4845,-3.20947 -0.26866,-5.32471 z"
           fill="#ffffff"
           id="path228-6"
           style="mix-blend-mode:normal" /></g><path
         id="lpe_path-effect228"
         class="powerclip"
         d="m 446.56268,-1.8387101 h 80.23897 V 75.686459 h -80.23897 z m 78.0298,168.8374901 c -0.0245,1.45166 -4.4e-4,3.01026 -0.16641,4.44727 -0.0434,0.37646 -0.33986,1.26708 -0.24156,1.45312 0.31773,-0.23584 0.37955,-0.29297 0.6296,-0.59912 0.34703,-0.4043 0.7487,-0.84961 1.05852,-1.27295 0.005,-1.00928 -0.24976,-3.54053 -1.28015,-4.02832 z m -74.99769,0.16699 c -1.21584,2.11524 -1.51101,3.44239 0.26866,5.32471 l 0.25591,0.10986 c 0.14136,-0.57568 -0.19834,-5.11084 -0.52457,-5.43457 z" /></clipPath><inkscape:path-effect
       effect="powerclip"
       message=""
       id="path-effect228-2"
       is_visible="true"
       lpeversion="1"
       inverse="true"
       flatten="false"
       hide_clip="false" /><clipPath
       clipPathUnits="userSpaceOnUse"
       id="clipath_lpe_path-effect228-2"><g
         id="g11"
         style="display:block"><path
           d="m 524.59248,166.99878 c 1.03039,0.48779 1.28543,3.01904 1.28015,4.02832 -0.30982,0.42334 -0.71149,0.86865 -1.05852,1.27295 -0.25005,0.30615 -0.31187,0.36328 -0.6296,0.59912 -0.0983,-0.18604 0.1982,-1.07666 0.24156,-1.45312 0.16597,-1.43701 0.14195,-2.99561 0.16641,-4.44727 z"
           fill="#ffffff"
           id="path10"
           style="mix-blend-mode:normal" /><path
           d="m 449.59479,167.16577 c 0.32623,0.32373 0.66593,4.85889 0.52457,5.43457 l -0.25591,-0.10986 c -1.77967,-1.88232 -1.4845,-3.20947 -0.26866,-5.32471 z"
           fill="#ffffff"
           id="path11"
           style="mix-blend-mode:normal" /></g></clipPath><linearGradient
       inkscape:collect="always"
       xlink:href="#linearGradient18"
       id="linearGradient19"
       x1="198.08164"
       y1="145.37103"
       x2="454.66537"
       y2="145.37103"
       gradientUnits="userSpaceOnUse"
       gradientTransform="matrix(0.99677064,0,0,0.99677064,5.1546455,20.887069)" /><linearGradient
       inkscape:collect="always"
       xlink:href="#linearGradient44"
       id="linearGradient45"
       x1="297.24789"
       y1="221.27794"
       x2="371.84188"
       y2="221.27794"
       gradientUnits="userSpaceOnUse"
       gradientTransform="matrix(1.2795441,-0.05654612,0.05844076,1.3224166,-64.969878,-25.871515)" /><linearGradient
       inkscape:collect="always"
       xlink:href="#linearGradient46"
       id="linearGradient47"
       x1="254.33007"
       y1="208.14844"
       x2="330.00778"
       y2="208.14844"
       gradientUnits="userSpaceOnUse"
       gradientTransform="matrix(1.2795441,-0.05654612,0.05844076,1.3224166,-64.969878,-25.871515)" /><linearGradient
       inkscape:collect="always"
       xlink:href="#linearGradient48"
       id="linearGradient49"
       x1="172.6833"
       y1="203.82799"
       x2="220.8113"
       y2="203.82799"
       gradientUnits="userSpaceOnUse"
       gradientTransform="matrix(1.2795441,-0.05654612,0.05844076,1.3224166,-63.498343,-41.61619)" /><linearGradient
       inkscape:collect="always"
       xlink:href="#linearGradient50"
       id="linearGradient51"
       x1="220.8113"
       y1="203.82799"
       x2="272.45377"
       y2="203.82799"
       gradientUnits="userSpaceOnUse"
       gradientTransform="matrix(1.2795441,-0.05654612,0.05844076,1.3224166,-63.498343,-41.61619)" /><linearGradient
       inkscape:collect="always"
       xlink:href="#linearGradient52"
       id="linearGradient53"
       x1="95.724894"
       y1="232.47754"
       x2="172.87829"
       y2="232.47754"
       gradientUnits="userSpaceOnUse"
       gradientTransform="matrix(1.2795441,-0.05654612,0.05844076,1.3224166,-59.399186,-30.597595)" /><linearGradient
       inkscape:collect="always"
       xlink:href="#linearGradient54"
       id="linearGradient55"
       x1="100.31698"
       y1="189.23027"
       x2="191.32822"
       y2="189.23027"
       gradientUnits="userSpaceOnUse"
       gradientTransform="matrix(1.2795441,-0.05654612,0.05844076,1.3224166,-59.399186,-30.597595)" /><linearGradient
       inkscape:collect="always"
       xlink:href="#linearGradient60"
       id="linearGradient56"
       gradientUnits="userSpaceOnUse"
       x1="198.08164"
       y1="145.37103"
       x2="454.66537"
       y2="145.37103"
       gradientTransform="translate(438.06679,42.720563)" /><linearGradient
       inkscape:collect="always"
       xlink:href="#linearGradient58"
       id="linearGradient57"
       gradientUnits="userSpaceOnUse"
       x1="26.614628"
       y1="146.13715"
       x2="454.66537"
       y2="146.13715"
       gradientTransform="translate(438.06679,42.720563)" /><linearGradient
       inkscape:collect="always"
       xlink:href="#linearGradient12"
       id="linearGradient1"
       gradientUnits="userSpaceOnUse"
       gradientTransform="matrix(0.99579873,-0.04400674,0.03678442,0.83236988,-0.69956001,71.713476)"
       x1="15.367944"
       y1="358.28393"
       x2="486.39124"
       y2="358.28393" /><linearGradient
       inkscape:collect="always"
       xlink:href="#linearGradient54"
       id="linearGradient2"
       gradientUnits="userSpaceOnUse"
       gradientTransform="matrix(1.2795441,-0.05654612,0.05844076,1.3224166,-59.399186,-30.597595)"
       x1="100.31698"
       y1="189.23027"
       x2="191.32822"
       y2="189.23027" /><linearGradient
       inkscape:collect="always"
       xlink:href="#linearGradient52"
       id="linearGradient3"
       gradientUnits="userSpaceOnUse"
       gradientTransform="matrix(1.2795441,-0.05654612,0.05844076,1.3224166,-59.399186,-30.597595)"
       x1="95.724894"
       y1="232.47754"
       x2="172.87829"
       y2="232.47754" /><linearGradient
       inkscape:collect="always"
       xlink:href="#linearGradient20"
       id="linearGradient4"
       gradientUnits="userSpaceOnUse"
       gradientTransform="matrix(0.99677064,0,0,0.99677064,5.1546455,20.887069)"
       x1="26.614628"
       y1="146.13715"
       x2="454.66537"
       y2="146.13715" /><linearGradient
       inkscape:collect="always"
       xlink:href="#linearGradient50"
       id="linearGradient5"
       gradientUnits="userSpaceOnUse"
       gradientTransform="matrix(1.2795441,-0.05654612,0.05844076,1.3224166,-63.498343,-41.61619)"
       x1="220.8113"
       y1="203.82799"
       x2="272.45377"
       y2="203.82799" /><linearGradient
       inkscape:collect="always"
       xlink:href="#linearGradient48"
       id="linearGradient6"
       gradientUnits="userSpaceOnUse"
       gradientTransform="matrix(1.2795441,-0.05654612,0.05844076,1.3224166,-63.498343,-41.61619)"
       x1="172.6833"
       y1="203.82799"
       x2="220.8113"
       y2="203.82799" /><linearGradient
       inkscape:collect="always"
       xlink:href="#linearGradient44"
       id="linearGradient8"
       gradientUnits="userSpaceOnUse"
       gradientTransform="matrix(1.2795441,-0.05654612,0.05844076,1.3224166,-64.969878,-25.871515)"
       x1="297.24789"
       y1="221.27794"
       x2="371.84188"
       y2="221.27794" /><linearGradient
       inkscape:collect="always"
       xlink:href="#linearGradient46"
       id="linearGradient9"
       gradientUnits="userSpaceOnUse"
       gradientTransform="matrix(1.2795441,-0.05654612,0.05844076,1.3224166,-64.969878,-25.871515)"
       x1="254.33007"
       y1="208.14844"
       x2="330.00778"
       y2="208.14844" /><linearGradient
       id="bg"
       x1="2"
       y1="2"
       x2="62"
       y2="62"
       gradientUnits="userSpaceOnUse"><stop
         offset="0%"
         stop-color="#5B7E2A"
         id="stop1-3" /><stop
         offset="100%"
         stop-color="#8FA840"
         id="stop2-6" /></linearGradient><linearGradient
       id="shine"
       x1="1.4142136"
       y1="2.8284271"
       x2="1.4142136"
       y2="45.254834"
       gradientTransform="scale(1.4142136,0.70710678)"
       gradientUnits="userSpaceOnUse"><stop
         offset="0%"
         stop-color="#ffffff"
         stop-opacity="0.18"
         id="stop3-7" /><stop
         offset="100%"
         stop-color="#ffffff"
         stop-opacity="0"
         id="stop4-5" /></linearGradient><filter
       id="alpha"
       filterUnits="objectBoundingBox"
       x="0"
       y="0"
       width="1"
       height="1"><feColorMatrix
         type="matrix"
         in="SourceGraphic"
         values="0 0 0 0 1 0 0 0 0 1 0 0 0 0 1 0 0 0 1 0"
         id="feColorMatrix2" /></filter><clipPath
       id="clip6"><path
         d="m 76,645 h 147 v 36 H 76 Z m 0,0"
         id="path6-0" /></clipPath><clipPath
       id="clip7"><path
         d="m 216.67187,608.85547 -10.38281,3.17578 c -5.03906,1.54297 -8.60937,6.02344 -8.98047,11.27734 l -0.78125,6.23438 -4.01953,-3.92969 c -1.76172,-1.72266 -4.1289,-2.6875 -6.58984,-2.6875 h -23.72266 c -8.89453,-1.09766 -12.0039,-11.4375 -34.33203,-11.4375 -22.32812,0 -22.88672,11.4375 -22.88672,11.4375 H 93.53125 c -11.441406,0 -11.441406,11.44141 -11.441406,11.44141 v 5.60937 h -2.976563 v -15.45703 c 0,-0.78906 -0.566406,-1.51953 -1.351562,-1.58594 -0.882813,-0.0781 -1.621094,0.61328 -1.621094,1.48047 v 42.78125 c 0,0.82031 0.667969,1.48438 1.488281,1.48438 0.820313,0 1.484375,-0.66407 1.484375,-1.48438 v -15.5625 h 2.976563 v 5.60938 c 0,0 0,11.4375 11.441406,11.4375 4.867188,0 10.21875,0.082 15.88281,0.15234 -2.71093,0.62109 -4.6914,3.16406 -4.41015,6.12109 0.24609,2.65625 2.38672,4.83594 5.03906,5.12891 3.45312,0.38281 6.375,-2.30469 6.375,-5.67969 0,-2.67578 -1.83984,-4.91797 -4.32031,-5.53906 47.54687,0.50781 115.04296,-0.89844 110.54687,-57.375 -0.0234,-0.29687 -0.23828,-0.66016 -0.54687,-1.03906 -0.95704,-1.19141 -2.40235,-1.82422 -3.89063,-1.82422 -0.51172,0 -1.03125,0.0742 -1.53516,0.23047"
         id="path7" /></clipPath><mask
       id="mask1"><g
         filter="url(#alpha)"
         id="g7"><rect
           x="0"
           y="0"
           width="299"
           height="772"
           style="fill:#000000;fill-opacity:0.100006;stroke:none"
           id="rect7-9" /></g></mask><clipPath
       id="clip9"><path
         d="M 0,0.804688 H 146.76953 V 36 H 0 Z m 0,0"
         id="path8" /></clipPath><clipPath
       id="clip10"><path
         d="m 140.67187,-36.144531 -10.38281,3.175781 c -5.03906,1.542969 -8.60937,6.023438 -8.98047,11.277344 l -0.78125,6.234375 -4.01953,-3.929688 c -1.76172,-1.722656 -4.1289,-2.6875 -6.58984,-2.6875 H 86.195312 c -8.894531,-1.097656 -12.003906,-11.4375 -34.332031,-11.4375 -22.328125,0 -22.886719,11.4375 -22.886719,11.4375 H 17.53125 c -11.441406,0 -11.441406,11.441407 -11.441406,11.441407 v 5.609374 H 3.113281 v -15.457031 c 0,-0.789062 -0.566406,-1.519531 -1.351562,-1.585937 -0.882813,-0.07813 -1.621094,0.613281 -1.621094,1.480468 v 42.78125 c 0,0.820313 0.667969,1.484376 1.488281,1.484376 0.820313,0 1.484375,-0.664063 1.484375,-1.484376 v -15.5625 h 2.976563 v 5.609376 c 0,0 0,11.4375 11.441406,11.4375 4.867188,0 10.21875,0.08203 15.882812,0.152343 -2.710937,0.621094 -4.691406,3.164063 -4.410156,6.121094 0.246094,2.65625 2.386719,4.835937 5.039063,5.128906 3.453125,0.382813 6.375,-2.304687 6.375,-5.679687 0,-2.675782 -1.839844,-4.917969 -4.320313,-5.539063 47.546875,0.507813 115.042964,-0.898437 110.546874,-57.375 -0.0234,-0.296875 -0.23828,-0.660156 -0.54687,-1.039062 -0.95704,-1.191407 -2.40235,-1.824219 -3.89063,-1.824219 -0.51172,0 -1.03125,0.07422 -1.53516,0.230469"
         id="path9" /></clipPath><clipPath
       id="clip8"><rect
         x="0"
         y="0"
         width="147"
         height="36"
         id="rect9" /></clipPath><g
       id="surface4650"
       clip-path="url(#clip8)"><g
         clip-path="url(#clip9)"
         clip-rule="nonzero"
         id="g11-3"><g
           clip-path="url(#clip10)"
           clip-rule="nonzero"
           id="g10"><path
             style="fill:#000000;fill-opacity:1;fill-rule:nonzero;stroke:none"
             d="M -1.128906,0.804688 H 146.76953 V 38.515625 H -1.128906 Z m 0,0"
             id="path10-5" /></g></g></g><clipPath
       id="clip6-6"><path
         d="m 76,645 h 147 v 36 H 76 Z m 0,0"
         id="path6-0-0" /></clipPath><clipPath
       id="clip7-6"><path
         d="m 216.67187,608.85547 -10.38281,3.17578 c -5.03906,1.54297 -8.60937,6.02344 -8.98047,11.27734 l -0.78125,6.23438 -4.01953,-3.92969 c -1.76172,-1.72266 -4.1289,-2.6875 -6.58984,-2.6875 h -23.72266 c -8.89453,-1.09766 -12.0039,-11.4375 -34.33203,-11.4375 -22.32812,0 -22.88672,11.4375 -22.88672,11.4375 H 93.53125 c -11.441406,0 -11.441406,11.44141 -11.441406,11.44141 v 5.60937 h -2.976563 v -15.45703 c 0,-0.78906 -0.566406,-1.51953 -1.351562,-1.58594 -0.882813,-0.0781 -1.621094,0.61328 -1.621094,1.48047 v 42.78125 c 0,0.82031 0.667969,1.48438 1.488281,1.48438 0.820313,0 1.484375,-0.66407 1.484375,-1.48438 v -15.5625 h 2.976563 v 5.60938 c 0,0 0,11.4375 11.441406,11.4375 4.867188,0 10.21875,0.082 15.88281,0.15234 -2.71093,0.62109 -4.6914,3.16406 -4.41015,6.12109 0.24609,2.65625 2.38672,4.83594 5.03906,5.12891 3.45312,0.38281 6.375,-2.30469 6.375,-5.67969 0,-2.67578 -1.83984,-4.91797 -4.32031,-5.53906 47.54687,0.50781 115.04296,-0.89844 110.54687,-57.375 -0.0234,-0.29687 -0.23828,-0.66016 -0.54687,-1.03906 -0.95704,-1.19141 -2.40235,-1.82422 -3.89063,-1.82422 -0.51172,0 -1.03125,0.0742 -1.53516,0.23047"
         id="path7-2" /></clipPath><clipPath
       id="clip8-6"><rect
         x="0"
         y="0"
         width="147"
         height="36"
         id="rect9-1" /></clipPath><clipPath
       id="clip9-8"><path
         d="M 0,0.804688 H 146.76953 V 36 H 0 Z m 0,0"
         id="path8-7" /></clipPath><clipPath
       id="clip10-9"><path
         d="m 140.67187,-36.144531 -10.38281,3.175781 c -5.03906,1.542969 -8.60937,6.023438 -8.98047,11.277344 l -0.78125,6.234375 -4.01953,-3.929688 c -1.76172,-1.722656 -4.1289,-2.6875 -6.58984,-2.6875 H 86.195312 c -8.894531,-1.097656 -12.003906,-11.4375 -34.332031,-11.4375 -22.328125,0 -22.886719,11.4375 -22.886719,11.4375 H 17.53125 c -11.441406,0 -11.441406,11.441407 -11.441406,11.441407 v 5.609374 H 3.113281 v -15.457031 c 0,-0.789062 -0.566406,-1.519531 -1.351562,-1.585937 -0.882813,-0.07813 -1.621094,0.613281 -1.621094,1.480468 v 42.78125 c 0,0.820313 0.667969,1.484376 1.488281,1.484376 0.820313,0 1.484375,-0.664063 1.484375,-1.484376 v -15.5625 h 2.976563 v 5.609376 c 0,0 0,11.4375 11.441406,11.4375 4.867188,0 10.21875,0.08203 15.882812,0.152343 -2.710937,0.621094 -4.691406,3.164063 -4.410156,6.121094 0.246094,2.65625 2.386719,4.835937 5.039063,5.128906 3.453125,0.382813 6.375,-2.304687 6.375,-5.679687 0,-2.675782 -1.839844,-4.917969 -4.320313,-5.539063 47.546875,0.507813 115.042964,-0.898437 110.546874,-57.375 -0.0234,-0.296875 -0.23828,-0.660156 -0.54687,-1.039062 -0.95704,-1.191407 -2.40235,-1.824219 -3.89063,-1.824219 -0.51172,0 -1.03125,0.07422 -1.53516,0.230469"
         id="path9-2" /></clipPath><mask
       id="mask1-0"><g
         filter="url(#alpha)"
         id="g7-2"
         style="filter:url(#alpha-7)"><rect
           x="0"
           y="0"
           width="299"
           height="772"
           style="fill:#000000;fill-opacity:0.100006;stroke:none"
           id="rect7-9-3" /></g></mask><filter
       id="alpha-7"
       filterUnits="objectBoundingBox"
       x="0"
       y="0"
       width="1"
       height="1"><feColorMatrix
         type="matrix"
         in="SourceGraphic"
         values="0 0 0 0 1 0 0 0 0 1 0 0 0 0 1 0 0 0 1 0"
         id="feColorMatrix2-5" /></filter><clipPath
       id="clipPath1"><rect
         x="0"
         y="0"
         width="147"
         height="36"
         id="rect1-6" /></clipPath><clipPath
       id="clipPath2"><path
         d="M 0,0.804688 H 146.76953 V 36 H 0 Z m 0,0"
         id="path1" /></clipPath><clipPath
       id="clipPath3-2"><path
         d="m 140.67187,-36.144531 -10.38281,3.175781 c -5.03906,1.542969 -8.60937,6.023438 -8.98047,11.277344 l -0.78125,6.234375 -4.01953,-3.929688 c -1.76172,-1.722656 -4.1289,-2.6875 -6.58984,-2.6875 H 86.195312 c -8.894531,-1.097656 -12.003906,-11.4375 -34.332031,-11.4375 -22.328125,0 -22.886719,11.4375 -22.886719,11.4375 H 17.53125 c -11.441406,0 -11.441406,11.441407 -11.441406,11.441407 v 5.609374 H 3.113281 v -15.457031 c 0,-0.789062 -0.566406,-1.519531 -1.351562,-1.585937 -0.882813,-0.07813 -1.621094,0.613281 -1.621094,1.480468 v 42.78125 c 0,0.820313 0.667969,1.484376 1.488281,1.484376 0.820313,0 1.484375,-0.664063 1.484375,-1.484376 v -15.5625 h 2.976563 v 5.609376 c 0,0 0,11.4375 11.441406,11.4375 4.867188,0 10.21875,0.08203 15.882812,0.152343 -2.710937,0.621094 -4.691406,3.164063 -4.410156,6.121094 0.246094,2.65625 2.386719,4.835937 5.039063,5.128906 3.453125,0.382813 6.375,-2.304687 6.375,-5.679687 0,-2.675782 -1.839844,-4.917969 -4.320313,-5.539063 47.546875,0.507813 115.042964,-0.898437 110.546874,-57.375 -0.0234,-0.296875 -0.23828,-0.660156 -0.54687,-1.039062 -0.95704,-1.191407 -2.40235,-1.824219 -3.89063,-1.824219 -0.51172,0 -1.03125,0.07422 -1.53516,0.230469"
         id="path2-9" /></clipPath><linearGradient
       inkscape:collect="always"
       xlink:href="#linearGradient14"
       id="linearGradient15"
       x1="-50.286763"
       y1="22.143559"
       x2="116.25604"
       y2="22.143559"
       gradientUnits="userSpaceOnUse" /><linearGradient
       inkscape:collect="always"
       xlink:href="#linearGradient22"
       id="linearGradient17"
       gradientUnits="userSpaceOnUse"
       x1="-50.286763"
       y1="22.143559"
       x2="116.25604"
       y2="22.143559"
       gradientTransform="translate(0.07309593,0.05685159)" /></defs><g
     inkscape:label="Capa 1"
     inkscape:groupmode="layer"
     id="layer1"><g
       sodipodi:type="inkscape:box3d"
       id="g21"
       style="fill:#f6b172;fill-opacity:1;stroke:none;stroke-width:0.2"
       inkscape:perspectiveID="#perspective21"
       inkscape:corner0="0.48809524 : 0.16609524 : 0 : 1"
       inkscape:corner7="0.1627907 : 0.074617051 : 0.25 : 1"><path
         sodipodi:type="inkscape:box3dside"
         id="path30"
         style="fill:#e9e9ff;fill-rule:evenodd;stroke:none;stroke-linejoin:round"
         inkscape:box3dsidetype="11"
         d="m 108.37484,231.81635 9.54037,-68.06826 77.87806,29.70812 -24.11614,62.50805 z"
         points="117.91521,163.74809 195.79327,193.45621 171.67713,255.96426 108.37484,231.81635 " /><path
         sodipodi:type="inkscape:box3dside"
         id="path25"
         style="fill:#353564;fill-rule:evenodd;stroke:none;stroke-linejoin:round"
         inkscape:box3dsidetype="6"
         d="m 77.445653,288.94646 73.937067,28.20476 20.29441,-61.18696 -63.30229,-24.14791 z"
         points="151.38272,317.15122 171.67713,255.96426 108.37484,231.81635 77.445653,288.94646 " /><path
         sodipodi:type="inkscape:box3dside"
         id="path29"
         style="fill:#afafde;fill-rule:evenodd;stroke:none;stroke-width:0.203323;stroke-linejoin:round"
         inkscape:box3dsidetype="13"
         d="m 151.38272,317.15122 23.62351,-58.82949 20.78704,-64.86552 -24.11614,62.50805 z"
         points="175.00623,258.32173 195.79327,193.45621 171.67713,255.96426 151.38272,317.15122 " /><path
         sodipodi:type="inkscape:box3dside"
         id="path26"
         style="fill:#4d4d9f;fill-rule:evenodd;stroke:none;stroke-linejoin:round"
         inkscape:box3dsidetype="5"
         d="m 77.445653,288.94646 2.938732,-66.72011 37.530825,-58.47826 -9.54037,68.06826 z"
         points="80.384385,222.22635 117.91521,163.74809 108.37484,231.81635 77.445653,288.94646 " /><path
         sodipodi:type="inkscape:box3dside"
         id="path28"
         style="fill:url(#linearGradient2);fill-rule:evenodd;stroke:none;stroke-width:0.203323;stroke-linejoin:round"
         inkscape:box3dsidetype="14"
         d="m 80.384385,222.22635 94.621845,36.09538 20.78704,-64.86552 -77.87806,-29.70812 z"
         points="175.00623,258.32173 195.79327,193.45621 117.91521,163.74809 80.384385,222.22635 " /><path
         sodipodi:type="inkscape:box3dside"
         id="path27"
         style="fill:url(#linearGradient3);fill-rule:evenodd;stroke:none;stroke-width:0.203323;stroke-linejoin:round"
         inkscape:box3dsidetype="3"
         d="m 77.445653,288.94646 2.938732,-66.72011 94.621845,36.09538 -23.62351,58.82949 z"
         points="80.384385,222.22635 175.00623,258.32173 151.38272,317.15122 77.445653,288.94646 " /></g><g
       sodipodi:type="inkscape:box3d"
       id="g36"
       style="fill:#f6b172;fill-opacity:1;stroke:none;stroke-width:0.2"
       inkscape:perspectiveID="#perspective36"
       inkscape:corner0="0.48809524 : 0.16609524 : 0 : 1"
       inkscape:corner7="0.1627907 : 0.074617051 : 0.25 : 1"><path
         sodipodi:type="inkscape:box3dside"
         id="path31"
         style="fill:#e9e9ff;fill-rule:evenodd;stroke:none;stroke-width:0.203323;stroke-linejoin:round"
         inkscape:box3dsidetype="11"
         d="m 230.98318,193.78325 64.46637,-17.02516 3.78404,85.62647 -65.1746,0.99918 z"
         points="295.44955,176.75809 299.23359,262.38456 234.05899,263.38374 230.98318,193.78325 " /><path
         sodipodi:type="inkscape:box3dside"
         id="path32"
         style="fill:#353564;fill-rule:evenodd;stroke:none;stroke-linejoin:round"
         inkscape:box3dsidetype="6"
         d="m 167.95791,186.22522 3.59255,81.29337 62.50853,-4.13485 -3.07581,-69.60049 z"
         points="171.55046,267.51859 234.05899,263.38374 230.98318,193.78325 167.95791,186.22522 " /><path
         sodipodi:type="inkscape:box3dside"
         id="path33"
         style="fill:#afafde;fill-rule:evenodd;stroke:none;stroke-linejoin:round"
         inkscape:box3dsidetype="13"
         d="m 171.55046,267.51859 61.69963,-0.0572 65.9835,-5.07679 -65.1746,0.99918 z"
         points="233.25009,267.46135 299.23359,262.38456 234.05899,263.38374 171.55046,267.51859 " /><path
         sodipodi:type="inkscape:box3dside"
         id="path34"
         style="fill:#4d4d9f;fill-rule:evenodd;stroke:none;stroke-linejoin:round"
         inkscape:box3dsidetype="5"
         d="m 167.95791,186.22522 60.69457,-22.80002 66.79707,13.33289 -64.46637,17.02516 z"
         points="228.65248,163.4252 295.44955,176.75809 230.98318,193.78325 167.95791,186.22522 " /><path
         sodipodi:type="inkscape:box3dside"
         id="path35"
         style="fill:url(#linearGradient5);fill-opacity:1;fill-rule:evenodd;stroke:none;stroke-linejoin:round"
         inkscape:box3dsidetype="14"
         d="m 228.65248,163.4252 4.59761,104.03615 65.9835,-5.07679 -3.78404,-85.62647 z"
         points="233.25009,267.46135 299.23359,262.38456 295.44955,176.75809 228.65248,163.4252 " /><path
         sodipodi:type="inkscape:box3dside"
         id="path36"
         style="fill:url(#linearGradient6);fill-opacity:1;fill-rule:evenodd;stroke:none;stroke-linejoin:round"
         inkscape:box3dsidetype="3"
         d="m 167.95791,186.22522 60.69457,-22.80002 4.59761,104.03615 -61.69963,0.0572 z"
         points="228.65248,163.4252 233.25009,267.46135 171.55046,267.51859 167.95791,186.22522 " /></g><g
       sodipodi:type="inkscape:box3d"
       id="g44"
       style="fill:#f6b172;fill-opacity:1;stroke:none;stroke-width:0.2"
       inkscape:perspectiveID="#perspective44"
       inkscape:corner0="0.48809524 : 0.16609524 : 0 : 1"
       inkscape:corner7="0.1627907 : 0.074617051 : 0.25 : 1"><path
         sodipodi:type="inkscape:box3dside"
         id="path37"
         style="fill:#e9e9ff;fill-rule:evenodd;stroke:none;stroke-width:0.199354;stroke-linejoin:round"
         inkscape:box3dsidetype="11"
         d="m 357.43467,216.12414 65.54985,12.28255 -31.05983,79.37405 -59.73664,-27.13832 z"
         points="422.98452,228.40669 391.92469,307.78074 332.18805,280.64242 357.43467,216.12414 " /><path
         sodipodi:type="inkscape:box3dside"
         id="path38"
         style="fill:#353564;fill-rule:evenodd;stroke:none;stroke-linejoin:round"
         inkscape:box3dsidetype="6"
         d="m 303.10303,182.14106 -29.48806,75.35736 58.57308,23.144 25.24662,-64.51828 z"
         points="273.61497,257.49842 332.18805,280.64242 357.43467,216.12414 303.10303,182.14106 " /><path
         sodipodi:type="inkscape:box3dside"
         id="path39"
         style="fill:#afafde;fill-rule:evenodd;stroke:none;stroke-linejoin:round"
         inkscape:box3dsidetype="13"
         d="m 273.61497,257.49842 56.19351,26.49825 62.11621,23.78407 -59.73664,-27.13832 z"
         points="329.80848,283.99667 391.92469,307.78074 332.18805,280.64242 273.61497,257.49842 " /><path
         sodipodi:type="inkscape:box3dside"
         id="path40"
         style="fill:#4d4d9f;fill-rule:evenodd;stroke:none;stroke-linejoin:round"
         inkscape:box3dsidetype="5"
         d="m 303.10303,182.14106 64.44314,5.41613 55.43835,40.8495 -65.54985,-12.28255 z"
         points="367.54617,187.55719 422.98452,228.40669 357.43467,216.12414 303.10303,182.14106 " /><path
         sodipodi:type="inkscape:box3dside"
         id="path43"
         style="fill:url(#linearGradient8);fill-rule:evenodd;stroke:none;stroke-linejoin:round"
         inkscape:box3dsidetype="14"
         d="m 367.54617,187.55719 -37.73769,96.43948 62.11621,23.78407 31.05983,-79.37405 z"
         points="329.80848,283.99667 391.92469,307.78074 422.98452,228.40669 367.54617,187.55719 " /><path
         sodipodi:type="inkscape:box3dside"
         id="path44"
         style="fill:url(#linearGradient9);fill-rule:evenodd;stroke:none;stroke-linejoin:round"
         inkscape:box3dsidetype="3"
         d="m 303.10303,182.14106 64.44314,5.41613 -37.73769,96.43948 -56.19351,-26.49825 z"
         points="367.54617,187.55719 329.80848,283.99667 273.61497,257.49842 303.10303,182.14106 " /></g><g
       sodipodi:type="inkscape:box3d"
       id="g84"
       style="fill:#f6b172;fill-opacity:1;stroke:none;stroke-width:0.2"
       inkscape:perspectiveID="#perspective21"
       inkscape:corner0="0.48809524 : 0.16609524 : 0 : 1"
       inkscape:corner7="0.1627907 : 0.074617051 : 0.25 : 1"><path
         sodipodi:type="inkscape:box3dside"
         id="path77"
         style="fill:#e9e9ff;fill-rule:evenodd;stroke:none;stroke-linejoin:round"
         inkscape:box3dsidetype="11"
         d="m 108.37484,231.81635 9.54037,-68.06826 77.87806,29.70812 -24.11614,62.50805 z"
         points="117.91521,163.74809 195.79327,193.45621 171.67713,255.96426 108.37484,231.81635 " /><path
         sodipodi:type="inkscape:box3dside"
         id="path78"
         style="fill:#353564;fill-rule:evenodd;stroke:none;stroke-linejoin:round"
         inkscape:box3dsidetype="6"
         d="m 77.445653,288.94646 73.937067,28.20476 20.29441,-61.18696 -63.30229,-24.14791 z"
         points="151.38272,317.15122 171.67713,255.96426 108.37484,231.81635 77.445653,288.94646 " /><path
         sodipodi:type="inkscape:box3dside"
         id="path79"
         style="fill:#afafde;fill-rule:evenodd;stroke:none;stroke-width:0.203323;stroke-linejoin:round"
         inkscape:box3dsidetype="13"
         d="m 151.38272,317.15122 23.62351,-58.82949 20.78704,-64.86552 -24.11614,62.50805 z"
         points="175.00623,258.32173 195.79327,193.45621 171.67713,255.96426 151.38272,317.15122 " /><path
         sodipodi:type="inkscape:box3dside"
         id="path80"
         style="fill:#4d4d9f;fill-rule:evenodd;stroke:none;stroke-linejoin:round"
         inkscape:box3dsidetype="5"
         d="m 77.445653,288.94646 2.938732,-66.72011 37.530825,-58.47826 -9.54037,68.06826 z"
         points="80.384385,222.22635 117.91521,163.74809 108.37484,231.81635 77.445653,288.94646 " /><path
         sodipodi:type="inkscape:box3dside"
         id="path81"
         style="fill:url(#linearGradient55);fill-rule:evenodd;stroke:none;stroke-width:0.203323;stroke-linejoin:round"
         inkscape:box3dsidetype="14"
         d="m 80.384385,222.22635 94.621845,36.09538 20.78704,-64.86552 -77.87806,-29.70812 z"
         points="175.00623,258.32173 195.79327,193.45621 117.91521,163.74809 80.384385,222.22635 " /><path
         sodipodi:type="inkscape:box3dside"
         id="path84"
         style="fill:url(#linearGradient53);fill-rule:evenodd;stroke:none;stroke-width:0.203323;stroke-linejoin:round"
         inkscape:box3dsidetype="3"
         d="m 77.445653,288.94646 2.938732,-66.72011 94.621845,36.09538 -23.62351,58.82949 z"
         points="80.384385,222.22635 175.00623,258.32173 151.38272,317.15122 77.445653,288.94646 " /></g><g
       sodipodi:type="inkscape:box3d"
       id="g93"
       style="fill:#f6b172;fill-opacity:1;stroke:none;stroke-width:0.2"
       inkscape:perspectiveID="#perspective36"
       inkscape:corner0="0.48809524 : 0.16609524 : 0 : 1"
       inkscape:corner7="0.1627907 : 0.074617051 : 0.25 : 1"><path
         sodipodi:type="inkscape:box3dside"
         id="path86"
         style="fill:#e9e9ff;fill-rule:evenodd;stroke:none;stroke-width:0.203323;stroke-linejoin:round"
         inkscape:box3dsidetype="11"
         d="m 230.98318,193.78325 64.46637,-17.02516 3.78404,85.62647 -65.1746,0.99918 z"
         points="295.44955,176.75809 299.23359,262.38456 234.05899,263.38374 230.98318,193.78325 " /><path
         sodipodi:type="inkscape:box3dside"
         id="path87"
         style="fill:#353564;fill-rule:evenodd;stroke:none;stroke-linejoin:round"
         inkscape:box3dsidetype="6"
         d="m 167.95791,186.22522 3.59255,81.29337 62.50853,-4.13485 -3.07581,-69.60049 z"
         points="171.55046,267.51859 234.05899,263.38374 230.98318,193.78325 167.95791,186.22522 " /><path
         sodipodi:type="inkscape:box3dside"
         id="path88"
         style="fill:#afafde;fill-rule:evenodd;stroke:none;stroke-linejoin:round"
         inkscape:box3dsidetype="13"
         d="m 171.55046,267.51859 61.69963,-0.0572 65.9835,-5.07679 -65.1746,0.99918 z"
         points="233.25009,267.46135 299.23359,262.38456 234.05899,263.38374 171.55046,267.51859 " /><path
         sodipodi:type="inkscape:box3dside"
         id="path89"
         style="fill:#4d4d9f;fill-rule:evenodd;stroke:none;stroke-linejoin:round"
         inkscape:box3dsidetype="5"
         d="m 167.95791,186.22522 60.69457,-22.80002 66.79707,13.33289 -64.46637,17.02516 z"
         points="228.65248,163.4252 295.44955,176.75809 230.98318,193.78325 167.95791,186.22522 " /><path
         sodipodi:type="inkscape:box3dside"
         id="path90"
         style="fill:url(#linearGradient51);fill-opacity:1;fill-rule:evenodd;stroke:none;stroke-linejoin:round"
         inkscape:box3dsidetype="14"
         d="m 228.65248,163.4252 4.59761,104.03615 65.9835,-5.07679 -3.78404,-85.62647 z"
         points="233.25009,267.46135 299.23359,262.38456 295.44955,176.75809 228.65248,163.4252 " /><path
         sodipodi:type="inkscape:box3dside"
         id="path93"
         style="fill:url(#linearGradient49);fill-opacity:1;fill-rule:evenodd;stroke:none;stroke-linejoin:round"
         inkscape:box3dsidetype="3"
         d="m 167.95791,186.22522 60.69457,-22.80002 4.59761,104.03615 -61.69963,0.0572 z"
         points="228.65248,163.4252 233.25009,267.46135 171.55046,267.51859 167.95791,186.22522 " /></g><g
       id="g13"
       transform="matrix(0.91999262,-0.04414931,0.04201893,1.0324984,-4.0869468,-17.392065)"><path
         style="fill:url(#linearGradient4);stroke:none;stroke-width:0.252138"
         d="M 37.475944,262.49185 202.5966,56.683319 458.35173,274.89397 H 379.65786 L 205.05579,114.96318 86.26256,276.42125 Z"
         id="path2"
         sodipodi:nodetypes="ccccccc" /><path
         style="fill:url(#linearGradient19);stroke:none;stroke-width:0.252138"
         d="M 202.5966,56.683319 458.35173,274.89397 H 379.65786 L 205.05579,114.96318 Z"
         id="path94"
         sodipodi:nodetypes="ccccc" /></g><g
       sodipodi:type="inkscape:box3d"
       id="g102"
       style="fill:#f6b172;fill-opacity:1;stroke:none;stroke-width:0.2"
       inkscape:perspectiveID="#perspective44"
       inkscape:corner0="0.48809524 : 0.16609524 : 0 : 1"
       inkscape:corner7="0.1627907 : 0.074617051 : 0.25 : 1"><path
         sodipodi:type="inkscape:box3dside"
         id="path95"
         style="fill:#e9e9ff;fill-rule:evenodd;stroke:none;stroke-width:0.199354;stroke-linejoin:round"
         inkscape:box3dsidetype="11"
         d="m 357.43467,216.12414 65.54985,12.28255 -31.05983,79.37405 -59.73664,-27.13832 z"
         points="422.98452,228.40669 391.92469,307.78074 332.18805,280.64242 357.43467,216.12414 " /><path
         sodipodi:type="inkscape:box3dside"
         id="path96"
         style="fill:#353564;fill-rule:evenodd;stroke:none;stroke-linejoin:round"
         inkscape:box3dsidetype="6"
         d="m 303.10303,182.14106 -29.48806,75.35736 58.57308,23.144 25.24662,-64.51828 z"
         points="273.61497,257.49842 332.18805,280.64242 357.43467,216.12414 303.10303,182.14106 " /><path
         sodipodi:type="inkscape:box3dside"
         id="path98"
         style="fill:#afafde;fill-rule:evenodd;stroke:none;stroke-linejoin:round"
         inkscape:box3dsidetype="13"
         d="m 273.61497,257.49842 56.19351,26.49825 62.11621,23.78407 -59.73664,-27.13832 z"
         points="329.80848,283.99667 391.92469,307.78074 332.18805,280.64242 273.61497,257.49842 " /><path
         sodipodi:type="inkscape:box3dside"
         id="path100"
         style="fill:#4d4d9f;fill-rule:evenodd;stroke:none;stroke-linejoin:round"
         inkscape:box3dsidetype="5"
         d="m 303.10303,182.14106 64.44314,5.41613 55.43835,40.8495 -65.54985,-12.28255 z"
         points="367.54617,187.55719 422.98452,228.40669 357.43467,216.12414 303.10303,182.14106 " /><path
         sodipodi:type="inkscape:box3dside"
         id="path101"
         style="fill:url(#linearGradient45);fill-rule:evenodd;stroke:none;stroke-linejoin:round"
         inkscape:box3dsidetype="14"
         d="m 367.54617,187.55719 -37.73769,96.43948 62.11621,23.78407 31.05983,-79.37405 z"
         points="329.80848,283.99667 391.92469,307.78074 422.98452,228.40669 367.54617,187.55719 " /><path
         sodipodi:type="inkscape:box3dside"
         id="path102"
         style="fill:url(#linearGradient47);fill-rule:evenodd;stroke:none;stroke-linejoin:round"
         inkscape:box3dsidetype="3"
         d="m 303.10303,182.14106 64.44314,5.41613 -37.73769,96.43948 -56.19351,-26.49825 z"
         points="367.54617,187.55719 329.80848,283.99667 273.61497,257.49842 303.10303,182.14106 " /></g><g
       id="g104"
       transform="matrix(-0.64578438,0.02853876,0.03640294,0.82373762,760.22008,3.0658017)"><path
         style="fill:url(#linearGradient57);fill-opacity:1;stroke:none;stroke-width:0.252955"
         d="M 464.68142,298.91014 636.14843,78.632785 892.73216,297.5504 H 813.78333 L 638.61558,137.10147 519.43748,299.08263 Z"
         id="path103"
         sodipodi:nodetypes="ccccccc" /><path
         style="fill:url(#linearGradient56);fill-opacity:1;stroke:none;stroke-width:0.252955"
         d="M 636.14843,78.632785 892.73216,297.5504 H 813.78333 L 638.61558,137.10147 Z"
         id="path104"
         sodipodi:nodetypes="ccccc" /></g><path
       style="fill:url(#linearGradient1);stroke:none;stroke-width:0.192201"
       d="m 24.083608,242.57857 468.106772,1.02516 -81.45455,227.98192 -303.54044,-0.6982 z"
       id="path105"
       sodipodi:nodetypes="ccccc" /><g
       id="g14"
       transform="matrix(2.7860574,0,0,2.7860574,168.11455,267.50175)"><path
         style="fill:url(#linearGradient15);stroke:none;stroke-width:0.071786"
         d="M 116.31289,-8.5685055 31.400915,53.164249 -50.286763,-8.8771312 c 55.5390386,0.056307 111.07143,0.1657928 166.599653,0.3086257 z"
         id="path14"
         sodipodi:nodetypes="cccc" /><path
         style="fill:url(#linearGradient17);fill-opacity:1;stroke:none;stroke-width:0.071786"
         d="M 116.32914,-8.5685055 31.474006,53.2211 31.147754,-8.7539334 Z"
         id="path15"
         sodipodi:nodetypes="cccc" /></g></g></svg>
